<svg version="1.2" xmlns="http://www.w3.org/2000/svg" viewBox="0 0 148 105" width="148" height="105">
	<title>section-shapes4-svg</title>
	<style>
		.s0 { fill: #07afee } 
	</style>
	<path id="Shape 1" class="s0" d="m146.5 7c0 0-27.1 4.7-37.4 37.4 0 0-6.1 29.7-15 37.4 0 0 15-10.9 22.5-41.2 0 0 10-27.1 29.9-33.6z"/>
	<path id="Shape 2" class="s0" d="m136.8 2.9c0 0-36.8 9.6-47.7 50.8 0 0-10 44.1-54.9 46.9 0 0 43.4 9 63.6-39.4 0 0 12.2-47.4 39-58.3z"/>
	<path id="Shape 3" class="s0" d="m71.6 3.2"/>
	<path id="Shape 4" class="s0" d="m120.3 3.2c0 0-33.9 10.6-44.9 48.7 0 0-10.8 37.4-41.2 26.2 0 0-8.4-4-13.8-16.9 0 0-4.5-11.9-12.4-5.6 0 0-12.7 9.6 3.3 24.3 0 0 24.8 22 53.5 3.6 0 0 15.7-12.7 18.5-38 0 0 7.3-27.5 37-42.3z"/>
	<path id="Shape 5" class="s0" d="m52.9 70.6c-6.2 0-11.2-5-11.2-11.2 0-6.2 5-11.3 11.2-11.3 6.2 0 11.2 5.1 11.2 11.3 0 6.2-5 11.2-11.2 11.2z"/>
	<path id="Shape 5 copy" class="s0" d="m71.6 40.8c-2.1 0-3.8-1.8-3.8-3.9 0-2.1 1.7-3.9 3.8-3.9 2.2 0 3.9 1.8 3.9 3.9 0 2.1-1.7 3.9-3.9 3.9z"/>
	<path id="Shape 5 copy 2" class="s0" d="m14.5 46.2c-3.6 0-6.5-2.9-6.5-6.5 0-3.6 2.9-6.5 6.5-6.5 3.6 0 6.6 2.9 6.6 6.5 0 3.6-3 6.5-6.6 6.5z"/>
	<path id="Shape 6" class="s0" d="m28.8 41.6c0 0 6.4-12.1 16.6-9.4 0 0 3.4 2.3 4.2 4.8 1 2.9-0.4 4.9-4.2 7.4 0 0-11.1 3-11.9 11 0 0-2 13.9 8.2 18.9 0 0-23.2-8.6-12.9-32.7z"/>
</svg>