<svg version="1.2" xmlns="http://www.w3.org/2000/svg" viewBox="0 0 448 105" width="448" height="105">
	<title>water-wave</title>
	<style>
		.s0 { fill: #0f74bc } 
		.s1 { fill: #2c3c9b } 
		.s2 { fill: #07afee } 
		.s3 { fill: #35c5e8 } 
	</style>
	<path id="Shape 4" class="s0" d="m215 31c0 0-33.1-23.7-89 10-51.3 31-101.3 14.4-118 8 0 0 54 39.7 117 10.6 0 0 54-37.6 90-28.6z"/>
	<path id="Shape 3" class="s1" d="m201 57c0 0 40.5-12.5 95 18 0 0 44.3 24 79 20 0 0-32.5 18.5-100-16 0 0-46.8-24.3-74-22z"/>
	<path id="Shape 1" class="s0" d="m177 59.5c0 0 36.7-43.4 114-11.7 0 0 91 48.3 132 12.6 0 0 16-11.7 23-34.4 0 0 0 54.8-62 60.7 0 0-38 4.9-100-26.3 0 0-50.3-33.2-107-0.9z"/>
	<path id="Shape 2" class="s2" d="m437.7 4.3c0 0 3.3 30-11 43.3 0 0-19 22.4-54.7 17.4 0 0 58-3.4 65.7-60.7z"/>
	<path id="Shape 5" class="s2" d="m1 18c0 0 40.7 28.3 89.7 17.3 49-11 24.3-5.9 32.3-6.3 0 0-22.3 9.7-32 14 0 0-24.7 9.3-44.3 3 0 0-16.7-4-45.7-28z"/>
	<path id="Shape 6" class="s0" d="m24 1c0 0 16 21 40 27 0 0-30.3 4.7-40-27z"/>
	<path id="Shape 7" class="s3" d="m197 38c0 0-25.7-4.6-42 24 0 0 15.7-16.3 42-24z"/>
</svg>